/* XPM */
static char * top_right_inactive_xpm[] = {
"1 18 2 1",
" 	c None",
"@	c #A0A0A0 s inactive_shadow_2",
" ",
"@",
"@",
"@",
"@",
"@",
"@",
"@",
"@",
"@",
"@",
"@",
"@",
"@",
"@",
"@",
"@",
"@",
"@",
"@",
"@",
"@",
"@"};
