/* XPM */
static char * title_2_active_xpm[] = {
"4 16 3 1",
" 	c None",
"+	c #A0A0A0 s active_mid_2",
"#	c #C0C0C0 s active_mid_1",
"++++",
"####",
"####",
"####",
"####",
"####",
"####",
"####",
"####",
"####",
"####",
"####",
"####",
"####",
"####",
"####",
"####",
"####",
"####",
"####",
"####",
"####",
"####"};
