<?xml version="1.0" encoding="utf-8"?>
<!DOCTYPE svg PUBLIC "-//W3C//DTD SVG 1.1//EN" "http://www.w3.org/Graphics/SVG/1.1/DTD/svg11.dtd">
<svg version="1.1" id="Layer_1" xmlns="http://www.w3.org/2000/svg" xmlns:xlink="http://www.w3.org/1999/xlink" x="0px" y="0px"
	 width="1920px" height="1200px" viewBox="0 -60 1920 1200" enable-background="new 0 -60 1920 1200" xml:space="preserve">
<g id="gradient">
	
		<radialGradient id="SVGID_1_" cx="2273.5127" cy="888.196" r="2425.5129" fx="2020.6345" fy="901.8718" gradientTransform="matrix(1.1643 0 0 -1.1024 -509.3552 788.5501)" gradientUnits="userSpaceOnUse">
		<stop  offset="0" style="stop-color:#073246"/>
		<stop  offset="0.4409" style="stop-color:#489291"/>
		<stop  offset="0.9891" style="stop-color:#063246"/>
	</radialGradient>
	<rect x="-320" y="-355.776" fill="url(#SVGID_1_)" width="2731.465" height="1496.776"/>
</g>
<g id="logo">
	<g>
		
			<radialGradient id="SVGID_2_" cx="1204.6465" cy="308.6379" r="2.9186" gradientTransform="matrix(1.0725 0 0 -0.9931 -240.5703 806.4608)" gradientUnits="userSpaceOnUse">
			<stop  offset="0" style="stop-color:#FFF1E9"/>
			<stop  offset="1" style="stop-color:#FFFFFF;stop-opacity:0.2"/>
		</radialGradient>
		<path fill="url(#SVGID_2_)" d="M1048.302,499.081c-2.963,0.042,0.562,1.523,4.428,2.12c1.069-0.834,2.041-1.676,2.901-2.496
			C1053.223,499.294,1050.772,499.306,1048.302,499.081"/>
		
			<radialGradient id="SVGID_3_" cx="1217.3438" cy="317.45" r="3.3039" gradientTransform="matrix(1.0725 0 0 -0.9931 -240.5703 806.4608)" gradientUnits="userSpaceOnUse">
			<stop  offset="0" style="stop-color:#FFF1E9"/>
			<stop  offset="1" style="stop-color:#FFFFFF;stop-opacity:0.2"/>
		</radialGradient>
		<path fill="url(#SVGID_3_)" d="M1064.207,495.124c1.764-2.43,3.051-5.092,3.503-7.844c-0.396,1.96-1.462,3.655-2.465,5.441
			c-5.539,3.481-0.523-2.066-0.004-4.177C1059.286,496.029,1064.421,493.033,1064.207,495.124"/>
		
			<radialGradient id="SVGID_4_" cx="1221.3652" cy="330.3" r="1.6042" gradientTransform="matrix(1.0725 0 0 -0.9931 -240.5703 806.4608)" gradientUnits="userSpaceOnUse">
			<stop  offset="0" style="stop-color:#FFF1E9"/>
			<stop  offset="1" style="stop-color:#FFFFFF;stop-opacity:0.2"/>
		</radialGradient>
		<path fill="url(#SVGID_4_)" d="M1070.079,479.875c0.355-5.327-1.052-3.644-1.526-1.608
			C1069.104,478.552,1069.545,482.019,1070.079,479.875"/>
		
			<radialGradient id="SVGID_5_" cx="1193.2783" cy="401.7234" r="1.4575" gradientTransform="matrix(1.0725 0 0 -0.9931 -240.5703 806.4608)" gradientUnits="userSpaceOnUse">
			<stop  offset="0" style="stop-color:#FFF1E9"/>
			<stop  offset="1" style="stop-color:#FFFFFF;stop-opacity:0.2"/>
		</radialGradient>
		<path fill="url(#SVGID_5_)" d="M1037.063,407.068c1.582,0.284,3.418,0.501,3.158,0.879
			C1041.954,407.567,1042.346,407.22,1037.063,407.068"/>
		
			<radialGradient id="SVGID_6_" cx="1193.6924" cy="401.1663" r="0.377" gradientTransform="matrix(1.0725 0 0 -0.9931 -240.5703 806.4608)" gradientUnits="userSpaceOnUse">
			<stop  offset="0" style="stop-color:#FFF1E9"/>
			<stop  offset="1" style="stop-color:#FFFFFF;stop-opacity:0.2"/>
		</radialGradient>
		<path fill="url(#SVGID_6_)" d="M1040.223,407.947l-1.114,0.229l1.037-0.093L1040.223,407.947"/>
		
			<radialGradient id="SVGID_7_" cx="1189.1416" cy="313.9685" r="78.6958" gradientTransform="matrix(1.0725 0 0 -0.9931 -240.5703 806.4608)" gradientUnits="userSpaceOnUse">
			<stop  offset="0" style="stop-color:#FFF1E9"/>
			<stop  offset="1" style="stop-color:#FFFFFF;stop-opacity:0.2"/>
		</radialGradient>
		<path fill="url(#SVGID_7_)" d="M1089.538,481.894c0.176,4.784-1.401,7.105-2.824,11.214l-2.563,1.276
			c-2.096,4.063,0.203,2.58-1.297,5.809c-3.271,2.907-9.93,9.09-12.061,9.652c-1.555-0.032,1.055-1.832,1.395-2.537
			c-4.378,3.004-3.512,4.509-10.211,6.333l-0.195-0.435c-16.522,7.758-39.471-7.616-39.168-28.596c-0.18,1.333-0.5,1-0.868,1.539
			c-0.854-10.793,4.995-21.634,14.853-26.06c9.646-4.768,20.951-2.811,27.86,3.616c-3.795-4.962-11.347-10.22-20.3-9.729
			c-8.77,0.139-16.97,5.699-19.707,11.737c-4.494,2.825-5.015,10.883-6.973,12.357c-2.634,19.321,4.952,27.667,17.786,37.485
			c2.021,1.36,0.573,1.563,0.846,2.6c-4.266-1.991-8.169-5.002-11.379-8.684c1.703,2.487,3.541,4.907,5.918,6.81
			c-4.021-1.358-9.394-9.728-10.962-10.067c6.932,12.388,28.119,21.726,39.215,17.091c-5.132,0.192-11.655,0.105-17.425-2.021
			c-2.421-1.244-5.717-3.822-5.125-4.306c15.142,5.646,30.782,4.276,43.885-6.206c3.332-2.592,6.975-6.999,8.024-7.06
			c-1.583,2.376,0.271,1.141-0.945,3.243c3.322-5.346-1.443-2.176,3.432-9.232l1.803,2.475c-0.67-4.436,5.521-9.827,4.895-16.846
			c1.42-2.147,1.584,2.31,0.076,7.247c2.092-5.477,0.553-6.356,1.088-10.875c0.582,1.516,1.344,3.131,1.733,4.733
			c-1.362-5.291,1.398-8.914,2.081-11.99c-0.671-0.297-2.103,2.34-2.43-3.913c0.05-2.716,0.758-1.423,1.031-2.092
			c-0.533-0.308-1.936-2.388-2.789-6.381c0.618-0.938,1.65,2.431,2.494,2.569c-0.541-3.175-1.474-5.595-1.511-8.03
			c-2.457-5.128-0.868,0.681-2.865-2.203c-2.612-8.145,2.173-1.892,2.495-5.59c3.966,5.734,6.227,14.619,7.262,18.298
			c-0.791-4.486-2.069-8.833-3.634-13.041c1.205,0.506-1.938-9.23,1.565-2.783c-3.742-13.748-16.019-26.593-27.315-32.619
			c1.384,1.259,3.127,6.139,2.501,6.387c-5.618-3.338-4.63-6.891-5.433-8.301c-4.579-1.855-4.877,0.149-7.907,0.005
			c-8.626-4.566-10.289-4.082-18.226-6.943l0.362,1.685c-5.718-1.9-6.658,0.721-12.834,0.006c-0.377-0.293,1.979-1.059,3.916-1.342
			c-5.521,0.729-5.267-1.086-10.671,0.2c1.332-0.935,2.739-1.55,4.162-2.343c-4.506,0.271-10.756,2.617-8.825,0.486
			c-7.351,3.271-20.4,7.867-27.725,14.722l-0.229-1.536c-3.356,4.021-14.636,12.009-15.532,17.217l-0.898,0.208
			c-1.745,2.952-2.877,6.298-4.261,9.332c-2.284,3.886-3.349,1.497-3.023,2.104c-4.488,9.093-6.723,16.731-8.649,22.994
			c1.373,2.051,0.033,12.339,0.551,20.573c-2.256,40.665,28.593,80.146,62.314,89.264c4.939,1.766,12.29,1.698,18.541,1.877
			c-7.375-2.104-8.331-1.114-15.516-3.617c-5.183-2.433-6.318-5.217-9.989-8.396l1.454,2.563c-7.201-2.545-4.188-3.148-10.047-5
			l1.553-2.022c-2.333-0.177-6.182-3.926-7.231-6.001l-2.552,0.103c-3.071-3.78-4.703-6.501-4.585-8.609l-0.823,1.465
			c-0.935-1.601-11.288-14.17-5.917-11.243c-0.996-0.912-2.324-1.481-3.761-4.091l1.094-1.246c-2.584-3.319-4.757-7.572-4.592-8.989
			c1.377,1.857,2.335,2.204,3.282,2.524c-6.526-16.163-6.892-0.89-11.837-16.452l1.049-0.083c-0.804-1.204-1.29-2.513-1.933-3.799
			l0.452-4.527c-4.697-5.419-1.313-23.056-0.636-32.724c0.469-3.933,3.921-8.117,6.547-14.685l-1.6-0.273
			c3.059-5.323,17.457-21.378,24.126-20.551c3.23-4.053-0.642-0.019-1.271-1.035c7.096-7.331,9.327-5.182,14.115-6.499
			c5.164-3.061-4.435,1.193-1.981-1.167c8.928-2.278,6.326-5.176,17.971-6.331c1.229,0.698-2.849,1.077-3.873,1.982
			c7.438-3.631,23.538-2.805,33.998,2.018c12.138,5.662,25.771,22.396,26.311,38.14l0.612,0.164
			c-0.313,6.258,0.957,13.496-1.239,20.146L1089.538,481.894"/>
		
			<radialGradient id="SVGID_8_" cx="1173.9844" cy="300.574" r="3.9573" gradientTransform="matrix(1.0725 0 0 -0.9931 -240.5703 806.4608)" gradientUnits="userSpaceOnUse">
			<stop  offset="0" style="stop-color:#FFF1E9"/>
			<stop  offset="1" style="stop-color:#FFFFFF;stop-opacity:0.2"/>
		</radialGradient>
		<path fill="url(#SVGID_8_)" d="M1015.956,503.142l-0.416,2.073c1.947,2.64,3.493,5.501,5.979,7.564
			C1019.729,509.296,1018.402,507.854,1015.956,503.142"/>
		
			<radialGradient id="SVGID_9_" cx="1175.2217" cy="306.2087" r="2.566" gradientTransform="matrix(1.0725 0 0 -0.9931 -240.5703 806.4608)" gradientUnits="userSpaceOnUse">
			<stop  offset="0" style="stop-color:#FFF1E9"/>
			<stop  offset="1" style="stop-color:#FFFFFF;stop-opacity:0.2"/>
		</radialGradient>
		<path fill="url(#SVGID_9_)" d="M1020.56,502.963c-1.027-1.139-1.641-2.509-2.321-3.875c0.65,2.397,1.989,4.459,3.234,6.556
			L1020.56,502.963"/>
		
			<radialGradient id="SVGID_10_" cx="1249.2305" cy="314.5754" r="6.5119" gradientTransform="matrix(1.0725 0 0 -0.9931 -240.5703 806.4608)" gradientUnits="userSpaceOnUse">
			<stop  offset="0" style="stop-color:#FFF1E9"/>
			<stop  offset="1" style="stop-color:#FFFFFF;stop-opacity:0.2"/>
		</radialGradient>
		<path fill="url(#SVGID_10_)" d="M1102.03,485.286l-0.437,1.091c-0.796,5.658-2.52,11.259-5.162,16.45
			C1099.351,497.348,1101.239,491.354,1102.03,485.286"/>
		
			<radialGradient id="SVGID_11_" cx="1194.541" cy="404.0393" r="2.7376" gradientTransform="matrix(1.0725 0 0 -0.9931 -240.5703 806.4608)" gradientUnits="userSpaceOnUse">
			<stop  offset="0" style="stop-color:#FFF1E9"/>
			<stop  offset="1" style="stop-color:#FFFFFF;stop-opacity:0.2"/>
		</radialGradient>
		<path fill="url(#SVGID_11_)" d="M1037.651,405.65c2.001-0.731,4.924-0.402,7.049-0.884c-2.771,0.229-5.526,0.37-8.25,0.721
			L1037.651,405.65"/>
		
			<radialGradient id="SVGID_12_" cx="1126.46" cy="363.7332" r="1.8316" gradientTransform="matrix(1.0725 0 0 -0.9931 -240.5703 806.4608)" gradientUnits="userSpaceOnUse">
			<stop  offset="0" style="stop-color:#FFF1E9"/>
			<stop  offset="1" style="stop-color:#FFFFFF;stop-opacity:0.2"/>
		</radialGradient>
		<path fill="url(#SVGID_12_)" d="M967.308,442.987c0.462,4.267-3.216,5.922,0.815,3.108
			C970.281,441.237,967.277,444.755,967.308,442.987"/>
		
			<radialGradient id="SVGID_13_" cx="1122.4219" cy="349.2385" r="2.268" gradientTransform="matrix(1.0725 0 0 -0.9931 -240.5703 806.4608)" gradientUnits="userSpaceOnUse">
			<stop  offset="0" style="stop-color:#FFF1E9"/>
			<stop  offset="1" style="stop-color:#FFFFFF;stop-opacity:0.2"/>
		</radialGradient>
		<path fill="url(#SVGID_13_)" d="M962.572,462.732c0.928-2.845,1.096-4.553,1.448-6.199
			C961.458,459.808,962.841,460.506,962.572,462.732"/>
	</g>
</g>
<g id="ray">
	
		<linearGradient id="SVGID_14_" gradientUnits="userSpaceOnUse" x1="1085.5723" y1="315.4954" x2="1480.6982" y2="315.4954" gradientTransform="matrix(1 0 0 -1 -123.3799 808.519)">
		<stop  offset="0" style="stop-color:#FFFFFF;stop-opacity:0.5"/>
		<stop  offset="1" style="stop-color:#FFFFFF;stop-opacity:0"/>
	</linearGradient>
	<path fill="none" stroke="url(#SVGID_14_)" stroke-width="1.5" stroke-miterlimit="10" d="M1356.568,493.023
		c0,77.011-88.115,139.441-196.813,139.441s-196.813-62.432-196.813-139.441c0-5.205,0.401-10.342,1.187-15.398
		c10.817-69.765,94.274-124.043,195.626-124.042C1268.453,353.583,1356.568,416.012,1356.568,493.023z"/>
	
		<linearGradient id="SVGID_15_" gradientUnits="userSpaceOnUse" x1="1122.2969" y1="371.9402" x2="1234.4629" y2="371.9402" gradientTransform="matrix(1 0 0 -1 -123.3799 808.519)">
		<stop  offset="0" style="stop-color:#FFFFFF;stop-opacity:0.5"/>
		<stop  offset="1" style="stop-color:#FFFFFF;stop-opacity:0"/>
	</linearGradient>
	
		<ellipse fill="none" stroke="url(#SVGID_15_)" stroke-width="1.5" stroke-miterlimit="10" cx="1055" cy="436.579" rx="55.333" ry="84.621"/>
	
		<linearGradient id="SVGID_16_" gradientUnits="userSpaceOnUse" x1="915.2822" y1="344.2576" x2="1217.1914" y2="344.2576" gradientTransform="matrix(1 0 0 -1 -123.3799 808.519)">
		<stop  offset="0" style="stop-color:#FFFFFF;stop-opacity:0.5"/>
		<stop  offset="1" style="stop-color:#FFFFFF;stop-opacity:0"/>
	</linearGradient>
	
		<ellipse fill="none" stroke="url(#SVGID_16_)" stroke-width="1.5" stroke-miterlimit="10" cx="942.857" cy="464.261" rx="150.204" ry="97.925"/>
	
		<linearGradient id="SVGID_17_" gradientUnits="userSpaceOnUse" x1="1193.4932" y1="291.0437" x2="1196.7109" y2="291.0437" gradientTransform="matrix(1 0 0 -1 -123.3799 808.519)">
		<stop  offset="0" style="stop-color:#FFFFFF;stop-opacity:0.5"/>
		<stop  offset="1" style="stop-color:#FFFFFF;stop-opacity:0"/>
	</linearGradient>
	<ellipse fill="none" stroke="url(#SVGID_17_)" stroke-miterlimit="10" cx="1071.722" cy="517.475" rx="1.109" ry="0.784"/>
	
		<linearGradient id="SVGID_18_" gradientUnits="userSpaceOnUse" x1="897.1055" y1="225.239" x2="1292.8359" y2="225.239" gradientTransform="matrix(1 0 0 -1 -123.3799 808.519)">
		<stop  offset="0" style="stop-color:#FFFFFF;stop-opacity:0"/>
		<stop  offset="1" style="stop-color:#FFFFFF;stop-opacity:0.5"/>
	</linearGradient>
	
		<ellipse fill="none" stroke="url(#SVGID_18_)" stroke-width="1.5" stroke-miterlimit="10" cx="971.591" cy="583.28" rx="197.115" ry="196.589"/>
	
		<radialGradient id="SVGID_19_" cx="1083.915" cy="291.0452" r="210.4398" gradientTransform="matrix(1 0 0 -1 -123.3799 808.519)" gradientUnits="userSpaceOnUse">
		<stop  offset="0" style="stop-color:#FFFFFF;stop-opacity:0.5"/>
		<stop  offset="1" style="stop-color:#FFFFFF;stop-opacity:0"/>
	</radialGradient>
	
		<line fill="none" stroke="url(#SVGID_19_)" stroke-width="1.5" stroke-miterlimit="10" x1="960.535" y1="219.868" x2="960.535" y2="815.08"/>
	
		<radialGradient id="SVGID_20_" cx="1097.457" cy="320.1228" r="201.687" gradientTransform="matrix(1 0 0 -1 -123.3799 808.519)" gradientUnits="userSpaceOnUse">
		<stop  offset="0" style="stop-color:#FFFFFF;stop-opacity:0.5"/>
		<stop  offset="1" style="stop-color:#FFFFFF;stop-opacity:0"/>
	</radialGradient>
	
		<line fill="none" stroke="url(#SVGID_20_)" stroke-width="1.5" stroke-miterlimit="10" x1="688.849" y1="488.396" x2="1259.305" y2="488.396"/>
	
		<linearGradient id="SVGID_21_" gradientUnits="userSpaceOnUse" x1="727.249" y1="686.2791" x2="922.8223" y2="686.2791" gradientTransform="matrix(0.5366 0 0 -0.4054 601.4 796.0092)">
		<stop  offset="0" style="stop-color:#FFFFFF;stop-opacity:0.5"/>
		<stop  offset="1" style="stop-color:#FFFFFF;stop-opacity:0"/>
	</linearGradient>
	
		<ellipse fill="none" stroke="url(#SVGID_21_)" stroke-width="1.5" stroke-miterlimit="10" cx="1044.114" cy="517.792" rx="52.069" ry="64.708"/>
</g>
<g id="lines" display="none">
	<g id="guides" display="inline">
		<line fill="none" stroke="#000000" stroke-miterlimit="10" x1="960" y1="-27" x2="960" y2="1219"/>
		<line fill="none" stroke="#000000" stroke-miterlimit="10" x1="0" y1="540" x2="1920" y2="540"/>
	</g>
</g>
</svg>
