/* XPM */
static char * right_inactive_xpm[] = {
"3 32 5 1",
" 	c None",
"+	c #E0E0E0 s inactive_hilight_1",
"@	c #A0A0A0 s inactive_shadow_1",
"$	c #B0B0B0 s inactive_mid_1",
"#	c #C0C0C0 s inactive_color_1",
"#$@",
"#$@",
"#$@",
"#$@",
"#$@",
"#$@",
"#$@",
"#$@",
"#$@",
"#$@",
"#$@",
"#$@",
"#$@",
"#$@",
"#$@",
"#$@",
"#$@",
"#$@",
"#$@",
"#$@",
"#$@",
"#$@",
"#$@",
"#$@",
"#$@",
"#$@",
"#$@",
"#$@",
"#$@",
"#$@",
"#$@",
"#$@"};
