/* XPM */
static char * top_right_active_xpm[] = {
"7 23 5 1",
" 	c None",
".	c #A0A0A0 s active_shadow_1",
"+	c #D0D0D0 s active_hilight_1",
"@	c #B0B0B0 s active_mid_1",
"#	c #C0C0C0 s active_color_1",
".....  ",
"@@@@#. ",
"####@#.",
"#####@.",
"#####@.",
"#####@.",
"#####@.",
"#####@.",
"#####@.",
"#####@.",
"#####@.",
"#####@.",
"#####@.",
"#####@.",
"#####@.",
"#####@.",
"#####@.",
"#####@.",
"#####@.",
"#####@.",
"#####@.",
"#####@.",
"#####@."};
