<?xml version="1.0" encoding="UTF-8" standalone="no"?>
<!-- Created with Inkscape (http://www.inkscape.org/) -->

<svg
   xmlns:dc="http://purl.org/dc/elements/1.1/"
   xmlns:cc="http://creativecommons.org/ns#"
   xmlns:rdf="http://www.w3.org/1999/02/22-rdf-syntax-ns#"
   xmlns:svg="http://www.w3.org/2000/svg"
   xmlns="http://www.w3.org/2000/svg"
   xmlns:xlink="http://www.w3.org/1999/xlink"
   xmlns:sodipodi="http://sodipodi.sourceforge.net/DTD/sodipodi-0.dtd"
   xmlns:inkscape="http://www.inkscape.org/namespaces/inkscape"
   width="736.60638"
   height="665.23248"
   id="svg2980"
   version="1.1"
   inkscape:version="0.92.3 (2405546, 2018-03-11)"
   sodipodi:docname="menu.svg">
  <defs
     id="defs2982">
    <inkscape:perspective
       sodipodi:type="inkscape:persp3d"
       inkscape:vp_x="0 : 526.18109 : 1"
       inkscape:vp_y="0 : 1000 : 0"
       inkscape:vp_z="744.09448 : 526.18109 : 1"
       inkscape:persp3d-origin="372.04724 : 350.78739 : 1"
       id="perspective2988" />
    <inkscape:perspective
       id="perspective2955"
       inkscape:persp3d-origin="0.5 : 0.33333333 : 1"
       inkscape:vp_z="1 : 0.5 : 1"
       inkscape:vp_y="0 : 1000 : 0"
       inkscape:vp_x="0 : 0.5 : 1"
       sodipodi:type="inkscape:persp3d" />
    <filter
       color-interpolation-filters="sRGB"
       inkscape:collect="always"
       id="filter3546">
      <feGaussianBlur
         inkscape:collect="always"
         stdDeviation="0.15992437"
         id="feGaussianBlur3548" />
    </filter>
    <linearGradient
       id="linearGradient3431">
      <stop
         id="stop3433"
         offset="0"
         style="stop-color:#3d3d3d;stop-opacity:1;" />
      <stop
         id="stop3435"
         offset="1"
         style="stop-color:#000000;stop-opacity:0.11400651;" />
    </linearGradient>
    <filter
       color-interpolation-filters="sRGB"
       inkscape:collect="always"
       id="filter3291">
      <feGaussianBlur
         inkscape:collect="always"
         stdDeviation="0.400625"
         id="feGaussianBlur3293" />
    </filter>
    <linearGradient
       id="linearGradient3312">
      <stop
         style="stop-color:#c7f994;stop-opacity:1;"
         offset="0"
         id="stop3314" />
      <stop
         style="stop-color:#87cf3e;stop-opacity:1;"
         offset="1"
         id="stop3316" />
    </linearGradient>
    <linearGradient
       inkscape:collect="always"
       xlink:href="#linearGradient3431"
       id="linearGradient3050"
       gradientUnits="userSpaceOnUse"
       gradientTransform="translate(0,80)"
       spreadMethod="pad"
       x1="70.491508"
       y1="416.38858"
       x2="113.64215"
       y2="375.87961" />
  </defs>
  <sodipodi:namedview
     id="base"
     pagecolor="#ffffff"
     bordercolor="#666666"
     borderopacity="1.0"
     inkscape:pageopacity="0.0"
     inkscape:pageshadow="2"
     inkscape:zoom="0.5"
     inkscape:cx="-567.69675"
     inkscape:cy="388.85957"
     inkscape:document-units="px"
     inkscape:current-layer="layer1"
     showgrid="true"
     showborder="false"
     inkscape:showpageshadow="false"
     inkscape:window-width="1920"
     inkscape:window-height="1006"
     inkscape:window-x="0"
     inkscape:window-y="0"
     inkscape:window-maximized="1"
     showguides="false">
    <inkscape:grid
       type="xygrid"
       id="grid4061" />
  </sodipodi:namedview>
  <metadata
     id="metadata2985">
    <rdf:RDF>
      <cc:Work
         rdf:about="">
        <dc:format>image/svg+xml</dc:format>
        <dc:type
           rdf:resource="http://purl.org/dc/dcmitype/StillImage" />
        <dc:title />
      </cc:Work>
    </rdf:RDF>
  </metadata>
  <g
     inkscape:label="Layer 1"
     inkscape:groupmode="layer"
     id="layer1"
     transform="translate(-1.6967481,-160.82649)">
    <g
       id="g862">
      <path
         inkscape:connector-curvature="0"
         id="path6141-3"
         d="M 661.69664,690.76674 V 414.57618 c 0,-92.27196 -83.11819,-167.06983 -185.67299,-167.06983 H 369.58163 v -0.22276 L 81.696748,246.05897 v 89.60131 h 32.248802 c 21.89427,0 48.23976,20.03058 48.23976,49.42477 l 0.22885,189.32655 c 0,92.27205 83.11861,167.06978 185.55903,167.06978 h 252.92486 c 32.42512,0 60.7987,-19.99127 60.7987,-50.71474 z"
         style="color:#000000;display:inline;overflow:visible;visibility:visible;fill:#8f1715;fill-opacity:1;fill-rule:evenodd;stroke:none;stroke-width:1.01691175;marker:none;enable-background:accumulate" />
      <path
         transform="matrix(6.0546942,0,0,6.0546942,-223.25155,-2305.4745)"
         sodipodi:nodetypes="cccccsccccc"
         id="path3419"
         d="m 142.9375,500.53125 c -10.75182,-7.40935 -18.36682,-15.92034 -24.78125,-27.1875 -12.64444,-23.35809 -9.68791,-34.95326 -41,-37.6875 -9.036289,0 -15.051217,-2 -24.5625,-2 l 0,3.3125 c 10e-7,10e-6 3.758681,1.90749 7.0625,1.90749 4.926697,1e-5 5.78125,3.41765 5.78125,8.125 l 0.03125,29.15501 c -3e-6,15.13758 13.295158,27.40625 29.65625,27.40625 l 40.375,0 c 2.96358,0 5.62572,-1.16787 7.4375,-3.03125 z"
         style="display:inline;opacity:0.17514122;fill:url(#linearGradient3050);fill-opacity:1;fill-rule:nonzero;filter:url(#filter3291)"
         inkscape:connector-curvature="0" />
      <path
         transform="matrix(6.0546942,0,0,6.0546942,-223.25155,-2305.4745)"
         sodipodi:nodetypes="csccccsssccccsssccccccccccccccccsscc"
         id="path2620"
         d="m 105.51844,438.54009 c -3.83671,0 -7.245744,1.42445 -9.984837,4.1914 -2.737725,2.76548 -4.1752,6.21796 -4.17519,10.11421 l 0,19.69466 8.932957,0 0,-19.69466 c 0,-1.49338 0.48728,-2.66108 1.55355,-3.73818 1.06977,-1.08055 2.2026,-1.56971 3.67352,-1.56971 1.50175,0 2.61758,0.4867 3.68969,1.56971 1.06628,1.0771 1.55356,2.2448 1.55356,3.73818 l 0,19.69466 8.93297,0 0,-19.69466 c 0,-1.49338 0.48728,-2.66108 1.55356,-3.73818 1.07211,-1.08301 2.18794,-1.56971 3.68971,-1.56971 1.47093,0 2.60373,0.48916 3.6735,1.56971 1.06627,1.0771 1.55356,2.2448 1.55356,3.73818 l 0.0486,23.01222 c 0,4.90894 -4.67486,9.04618 -10.68071,9.04618 l -28.805549,-0.11326 c -4.634707,0 -8.593128,-4.51117 -8.593128,-10.30852 l 0,-43.33528 -8.447462,0 0,45.00209 c 0,4.77471 1.747181,8.96178 5.146164,12.3476 2.905193,2.8676 6.399074,4.56445 10.324689,4.98427 l 0,0.16191 32.074486,0 c 4.92872,0 9.25884,-1.83265 12.75212,-5.38904 l 0.0162,0 c 2.97102,-3.05245 4.70787,-6.70998 5.12997,-10.82624 l -0.0324,-24.58193 c 0,-3.89625 -1.43744,-7.34873 -4.17521,-10.11421 -2.73906,-2.76695 -6.14812,-4.1914 -9.98482,-4.1914 -3.76604,0 -7.06133,1.40042 -9.72593,3.96479 -2.65681,-2.56014 -5.92908,-3.96479 -9.69356,-3.96479 z"
         style="color:#000000;display:inline;overflow:visible;visibility:visible;fill:#000000;fill-opacity:0.08040203;fill-rule:evenodd;stroke:none;stroke-width:4.7667098;marker:none;filter:url(#filter3546);enable-background:accumulate"
         inkscape:connector-curvature="0" />
      <path
         id="path4130"
         d="m 411.31105,351.17134 c -23.23012,0 -43.87076,8.62459 -60.45514,25.37765 -16.57613,16.74411 -25.27959,37.64786 -25.27954,61.23843 l 0,119.24516 54.08639,0 0,-119.24516 c 0,-9.04193 2.9503,-16.11203 9.40622,-22.63356 6.47717,-6.54236 13.3361,-9.5041 22.24207,-9.5041 9.09262,0 15.84865,2.94685 22.33996,9.5041 6.45597,6.52153 9.40634,13.59163 9.40634,22.63356 l 0,119.24516 54.08632,0 0,-119.24516 c 0,-9.04193 2.95037,-16.11203 9.40641,-22.63356 6.49124,-6.55725 13.24727,-9.5041 22.34006,-9.5041 8.90603,0 15.7648,2.96174 22.24185,9.5041 6.45597,6.52153 9.40634,13.59163 9.40634,22.63356 l 0.29394,139.33196 c 0,29.72213 -28.30487,54.77182 -64.66844,54.77182 l -174.40875,-0.68573 c -28.06175,0 -52.02875,-27.31375 -52.02875,-62.41494 l 0,-262.38183 -51.14679,0 0,272.47385 c 0,28.90941 10.57865,54.26083 31.15843,74.761 17.59004,17.36239 38.74446,28.61707 62.51277,31.15896 l 194.20127,-4.7e-4 c 29.84189,0 56.05939,-11.09612 77.21018,-32.62895 l 0.0982,0 c 17.98853,-18.48171 28.50469,-40.62687 31.06038,-65.54958 l -0.19566,-148.83609 c 0,-23.59057 -8.70318,-44.49432 -25.27954,-61.23843 -16.5842,-16.75306 -37.22502,-25.37765 -60.45502,-25.37765 -22.80223,0 -42.75418,8.47911 -58.88759,24.00558 -16.08619,-15.50087 -35.89871,-24.00558 -58.6915,-24.00558 z"
         style="color:#000000;display:inline;overflow:visible;visibility:visible;fill:#000000;fill-opacity:1;fill-rule:evenodd;stroke:none;stroke-width:1;marker:none;enable-background:accumulate"
         sodipodi:nodetypes="csccccsssccccssscccccccccccccccsscc"
         inkscape:connector-curvature="0" />
      <path
         inkscape:connector-curvature="0"
         id="path4132"
         d="m 562.86523,577.06836 c 0.2185,25.24514 -20.22484,46.44751 -43.54101,53.22461 -20.09821,6.1899 -41.43227,2.36761 -62.07013,3.33426 -25.25006,-0.0782 -50.50012,-0.15643 -75.75018,-0.23465 0,16.47005 0,32.9401 0,49.41015 44.37861,-0.20904 88.92379,0.40803 133.20507,-0.28906 50.59323,-2.84811 95.09802,-47.33911 98.11133,-98 0,-8.73242 0,-17.46484 0,-26.19726 -16.65169,0 -33.30338,0 -49.95508,0 0,6.25065 0,12.5013 0,18.75195 z"
         style="color:#000000;display:inline;overflow:visible;visibility:visible;opacity:0.3;fill:#808080;fill-opacity:1;fill-rule:evenodd;stroke:none;stroke-width:1;marker:none;enable-background:accumulate" />
      <path
         sodipodi:nodetypes="ccccccscccccccccccccsccccccc"
         d="m 352.01518,770.93592 c -122.9425,0 -211.6326,-71.83102 -211.6326,-195.49229 l -0.11028,-150.15145 0,-52.28854 -77.944464,0 0,-158.77873 308.693794,1.55841 c 34.27317,0.17302 102.82057,0.22275 102.82057,0.22275 123.05297,0 209.63256,77.71931 209.63256,201.49163 l 2,355.43824 -333.45939,-2 0,0 0,0 z m 301.37556,-79.2477 0,-276.19056 c 0,-92.27196 -80.37661,-167.06983 -179.54873,-167.06983 l -102.93106,0 0,-0.22276 -278.389146,-1.22462 0,89.60131 31.185116,0 c 21.1721,0 46.64858,20.03058 46.64858,49.42477 l 0.22126,189.32655 c 0,92.27205 80.37705,167.06978 179.43844,167.06978 l 244.58232,0 c 31.35558,0 58.79327,-19.99127 58.79327,-50.71474 z"
         style="color:#000000;display:inline;overflow:visible;visibility:visible;fill:#999999;fill-opacity:1;fill-rule:evenodd;stroke:none;stroke-width:1;marker:none;enable-background:accumulate"
         id="path6141"
         inkscape:connector-curvature="0" />
    </g>
  </g>
</svg>
