<?xml version="1.0" encoding="UTF-8" standalone="no"?>
<svg
   xmlns:dc="http://purl.org/dc/elements/1.1/"
   xmlns:cc="http://creativecommons.org/ns#"
   xmlns:rdf="http://www.w3.org/1999/02/22-rdf-syntax-ns#"
   xmlns:svg="http://www.w3.org/2000/svg"
   xmlns="http://www.w3.org/2000/svg"
   xmlns:sodipodi="http://sodipodi.sourceforge.net/DTD/sodipodi-0.dtd"
   xmlns:inkscape="http://www.inkscape.org/namespaces/inkscape"
   version="1.1"
   id="Layer_1"
   inkscape:export-ydpi="90"
   inkscape:export-xdpi="90"
   inkscape:export-filename="/tmp/1920x1200.png"
   sodipodi:docname="3840x2160.svg"
   inkscape:version="0.92.0 r15299"
   x="0px"
   y="0px"
   width="3840"
   height="2160"
   viewBox="0 0 3840 2160"
   enable-background="new 0 0 1920 1200"
   xml:space="preserve"><metadata
     id="metadata115"><rdf:RDF><cc:Work
         rdf:about=""><dc:format>image/svg+xml</dc:format><dc:type
           rdf:resource="http://purl.org/dc/dcmitype/StillImage" /><dc:title></dc:title></cc:Work></rdf:RDF></metadata><defs
     id="defs113"><radialGradient
       gradientUnits="userSpaceOnUse"
       gradientTransform="matrix(2.3286,0,0,-2.2048,-4657.5084,3984.02)"
       fy="1914.728"
       fx="3682.4878"
       r="2425.521"
       cy="1901.052"
       cx="3935.3669"
       id="rect11_1_"><stop
         id="stop6"
         style="stop-color:#073246"
         offset="0" /><stop
         id="stop8"
         style="stop-color:#489291"
         offset="0.4409" /><stop
         id="stop10"
         style="stop-color:#063246"
         offset="0.9891" /></radialGradient></defs><sodipodi:namedview
     borderlayer="true"
     inkscape:cy="1295.8338"
     inkscape:cx="2472.2904"
     inkscape:zoom="0.39333334"
     showgrid="false"
     guidetolerance="10"
     gridtolerance="10"
     objecttolerance="10"
     borderopacity="1"
     bordercolor="#666666"
     pagecolor="#ffffff"
     id="namedview179"
     inkscape:current-layer="Layer_1"
     inkscape:window-maximized="1"
     inkscape:window-y="34"
     inkscape:window-x="0"
     inkscape:window-height="1013"
     inkscape:window-width="1920"
     inkscape:pageshadow="2"
     inkscape:pageopacity="0"
     fit-margin-top="0"
     fit-margin-left="0"
     fit-margin-right="0"
     fit-margin-bottom="0" /><linearGradient
     id="ellipse115_1_"
     gradientUnits="userSpaceOnUse"
     x1="2533.6902"
     y1="75.457802"
     x2="2889.6902"
     y2="555.4577"
     gradientTransform="matrix(2.05074,0.1935,-0.1935,-1.9494,-1877.523,1350.3174)"><stop
       offset="0"
       style="stop-color:#FF703E;stop-opacity:0.5"
       id="stop14" /><stop
       offset="1"
       style="stop-color:#FF703E;stop-opacity:0"
       id="stop16" /></linearGradient><linearGradient
     id="ellipse115_2_"
     gradientUnits="userSpaceOnUse"
     x1="1603.5935"
     y1="691.29999"
     x2="2092.0066"
     y2="691.29999"
     gradientTransform="matrix(1.8,0,0,1.8,315.45574,-10.234894)"><stop
       offset="0"
       style="stop-color:#FFFFFF;stop-opacity:0.5"
       id="stop19" /><stop
       offset="1"
       style="stop-color:#FFFFFF;stop-opacity:0"
       id="stop21" /></linearGradient><linearGradient
     id="path122_1_"
     gradientUnits="userSpaceOnUse"
     x1="2386.1306"
     y1="193.4631"
     x2="1720.1268"
     y2="307.46329"
     gradientTransform="matrix(1.8,0,0,-1.8,-750.937,2219.8606)"><stop
       offset="0"
       style="stop-color:#C4D36A;stop-opacity:0.5"
       id="stop25" /><stop
       offset="0.672"
       style="stop-color:#FFFF00;stop-opacity:0"
       id="stop27" /></linearGradient><linearGradient
     id="path122_2_"
     gradientUnits="userSpaceOnUse"
     x1="1699.9138"
     y1="704.99628"
     x2="1358.9851"
     y2="1295.5022"
     gradientTransform="matrix(1.8,0,0,1.8,315.45574,-10.234894)"><stop
       offset="0"
       style="stop-color:#FFFFFF;stop-opacity:0.5"
       id="stop30" /><stop
       offset="1"
       style="stop-color:#FFFFFF;stop-opacity:0"
       id="stop32" /></linearGradient><linearGradient
     id="path129_1_"
     gradientUnits="userSpaceOnUse"
     x1="2922.9958"
     y1="1154.3909"
     x2="2929.1228"
     y2="1154.3909"
     gradientTransform="matrix(1.8,0,0,-1.8,-1819.1122,3821.9484)"><stop
       offset="0"
       style="stop-color:#FFFFFF;stop-opacity:0.5"
       id="stop36" /><stop
       offset="1"
       style="stop-color:#FFFFFF;stop-opacity:0"
       id="stop38" /></linearGradient><linearGradient
     id="path136_1_"
     gradientUnits="userSpaceOnUse"
     x1="1644.991"
     y1="112.2419"
     x2="2557.491"
     y2="112.2419"
     gradientTransform="matrix(1.8,0,0,-1.8,-750.937,2219.8606)"><stop
       offset="0"
       style="stop-color:#FFFFFF;stop-opacity:0"
       id="stop42" /><stop
       offset="1"
       style="stop-color:#FFFFFF;stop-opacity:0.5"
       id="stop44" /></linearGradient><linearGradient
     id="path157_1_"
     gradientUnits="userSpaceOnUse"
     x1="2147.7908"
     y1="263.64182"
     x2="2389.8904"
     y2="263.64182"
     gradientTransform="matrix(1.8,0,0,-1.8,-750.937,2219.8606)"><stop
       offset="0"
       style="stop-color:#FFFFFF;stop-opacity:0.5"
       id="stop48" /><stop
       offset="1"
       style="stop-color:#FF00FF;stop-opacity:0"
       id="stop50" /></linearGradient><linearGradient
     id="path122-9_1_"
     gradientUnits="userSpaceOnUse"
     x1="2694.0085"
     y1="733.63702"
     x2="1490.8843"
     y2="1498.7159"
     gradientTransform="matrix(1.801,-0.7564,-0.7744,-1.844,-588.4712,4861.5775)"><stop
       offset="0"
       style="stop-color:#00FFFF;stop-opacity:0.5"
       id="stop54" /><stop
       offset="0.5914"
       style="stop-color:#00FFFF;stop-opacity:0"
       id="stop56" /></linearGradient><linearGradient
     id="path122-9_2_"
     gradientUnits="userSpaceOnUse"
     x1="1515.6443"
     y1="415.83469"
     x2="1118.4648"
     y2="1103.7697"
     gradientTransform="matrix(2,0,0,2,1,-241.00001)"><stop
       offset="0"
       style="stop-color:#FFFFFF;stop-opacity:0.5"
       id="stop59" /><stop
       offset="1"
       style="stop-color:#FFFFFF;stop-opacity:0"
       id="stop61" /></linearGradient><linearGradient
     id="path136-2_1_"
     gradientUnits="userSpaceOnUse"
     x1="2823.6345"
     y1="-1023.7244"
     x2="1371.4865"
     y2="-417.6651"
     gradientTransform="matrix(1.1086,1.6646,1.6646,-1.1086,1586.897,-3735.4692)"><stop
       offset="0"
       style="stop-color:#C95D67;stop-opacity:0.5"
       id="stop65" /><stop
       offset="0.543"
       style="stop-color:#FFC7DB;stop-opacity:0"
       id="stop67" /></linearGradient><linearGradient
     id="path136-2_2_"
     gradientUnits="userSpaceOnUse"
     x1="846.31708"
     y1="502.47971"
     x2="1905.908"
     y2="502.47971"
     gradientTransform="matrix(2,0,0,2,1,-241.00001)"><stop
       offset="0"
       style="stop-color:#FFFFFF;stop-opacity:0.5"
       id="stop70" /><stop
       offset="1"
       style="stop-color:#FFFFFF;stop-opacity:0"
       id="stop72" /></linearGradient><radialGradient
     id="line150-0_1_"
     cx="249.15981"
     cy="1170.7542"
     r="176.18359"
     gradientUnits="userSpaceOnUse"><stop
       offset="0"
       style="stop-color:#FFFFFF;stop-opacity:0.5"
       id="stop100" /><stop
       offset="0.8536"
       style="stop-color:#FFFFFF;stop-opacity:0.0732"
       id="stop102" /><stop
       offset="1"
       style="stop-color:#FFFFFF;stop-opacity:0"
       id="stop104" /></radialGradient><radialGradient
     id="line143-1_1_"
     cx="280.7178"
     cy="1068.4785"
     r="156.1866"
     gradientUnits="userSpaceOnUse"
     fx="280.7178"
     fy="1068.4785"><stop
       offset="0"
       style="stop-color:#FFFFFF;stop-opacity:0.5"
       id="stop108" /><stop
       offset="0.8548"
       style="stop-color:#FFFFFF;stop-opacity:0"
       id="stop110" /></radialGradient><rect
     style="fill:url(#rect11_1_);stroke-width:2"
     height="2993.6001"
     width="5463"
     y="-537.79999"
     x="-409"
     id="rect11" /><path
     inkscape:connector-curvature="0"
     style="fill:url(#ellipse115_1_);stroke:url(#ellipse115_2_);stroke-width:1.79999995;stroke-miterlimit:10"
     id="ellipse115"
     sodipodi:ry="195.552"
     sodipodi:rx="127.869"
     sodipodi:cy="791.151"
     sodipodi:cx="1727.354"
     stroke-miterlimit="10"
     d="m 4011.5758,754.76511 c 129.96,100.44 69.84,396.35819 -134.64,661.13999 -204.3,264.78 -475.3818,397.98 -605.52,297.54 -129.96,-100.44 -69.84,-396.36 134.64,-661.14 204.48,-264.78179 475.56,-397.97999 605.52,-297.53999 z" /><path
     style="fill:url(#path122_1_);stroke:url(#path122_2_);stroke-width:1.79999995;stroke-miterlimit:10"
     id="path122"
     inkscape:connector-curvature="0"
     stroke-miterlimit="10"
     d="m 2780.3758,1502.1233 c 244.08,-244.08 570.78,-312.84 729.9,-153.7182 159.12,159.1182 90.18,485.8182 -153.72,729.9 -244.08,244.08 -570.78,312.84 -729.9,153.7182 -159.12,-159.1182 -90.18,-485.8182 153.72,-729.9 z" /><path
     style="fill:url(#path122-9_1_);stroke:url(#path122-9_2_);stroke-width:2;stroke-miterlimit:10"
     id="path122-9"
     inkscape:connector-curvature="0"
     stroke-miterlimit="10"
     d="m 2846.4,535.79999 c 622,192.6 1031.8,681.40001 915,1091.59991 -116.6,410.202 -715.6,586.6021 -1337.6,394 C 1801.8,1828.8 1392,1340 1508.8,929.79999 c 116.802,-410.4 715.6,-586.6 1337.6,-394 z" /><path
     style="fill:url(#path136-2_1_);stroke:url(#path136-2_2_);stroke-width:2;stroke-miterlimit:10"
     id="path136-2"
     inkscape:connector-curvature="0"
     stroke-miterlimit="10"
     d="m 3468,287.99999 c 431.2,647.6 460.8,1385.80001 66.2,1648.59991 -394.8,262.7981 -1064.4,-49 -1495.6,-696.5999 -431.4,-647.60001 -460.998,-1385.80001 -66.2,-1648.60001 394.6,-263.00005 1064.4,49 1495.6,696.6 z" /><path
     style="fill:none;stroke:url(#path136_1_);stroke-width:2.70000005;stroke-miterlimit:10"
     id="path136"
     inkscape:connector-curvature="0"
     stroke-miterlimit="10"
     d="m 3031.2976,1200.0851 c 452.88,0 819.9,366.12 819.9,817.7401 0,451.62 -367.02,817.7418 -819.9,817.7418 -452.8818,0 -819.9,-366.12 -819.9,-817.7418 0,-451.6201 367.0182,-817.7401 819.9,-817.7401 z" /><path
     style="fill:none;stroke:url(#path129_1_);stroke-width:1.79999995;stroke-miterlimit:10"
     id="path129"
     inkscape:connector-curvature="0"
     stroke-miterlimit="10"
     d="m 3447.8158,1740.8051 c 2.52,0 4.6818,1.44 4.6818,3.24 0,1.8 -1.9818,3.24 -4.6818,3.24 -2.5182,0 -4.68,-1.44 -4.68,-3.24 0,-1.8 2.1618,-3.24 4.68,-3.24 z" /><path
     style="fill:none;stroke:url(#path157_1_);stroke-width:2.70000005;stroke-miterlimit:10"
     id="path157"
     inkscape:connector-curvature="0"
     stroke-miterlimit="10"
     d="m 3332.9758,1476.2051 c 119.7,0 216.54,120.6 216.54,269.1 0,148.6801 -97.0182,269.1 -216.54,269.1 -119.7,0 -216.54,-120.5999 -216.54,-269.1 0,-148.5 96.84,-269.1 216.54,-269.1 z" /><g
     id="logo"
     style="opacity:0.9"
     transform="matrix(1.8,0,0,1.8,315.45574,-10.234894)"><g
       id="g16"><path
         style="fill:#ffffff"
         id="path23"
         inkscape:connector-curvature="0"
         d="m 1686.1,932.1 c -6.8,0.1 1.3,3.5 10.2,4.9 2.5,-1.9 4.699,-3.9 6.699,-5.801 -5.599,1.401 -11.198,1.401 -16.899,0.901" /><path
         style="fill:#ffffff"
         id="path30"
         inkscape:connector-curvature="0"
         d="m 1722.801,923 c 4.1,-5.601 7.1,-11.801 8.1,-18.101 -0.9,4.5 -3.4,8.4 -5.7,12.601 -12.8,8 -1.199,-4.801 0,-9.7 -13.801,17.2 -1.9,10.3 -2.4,15.2" /><path
         style="fill:#ffffff"
         id="path37"
         inkscape:connector-curvature="0"
         d="m 1736.4,887.699 c 0.8,-12.3 -2.4,-8.399 -3.5,-3.699 1.2,0.699 2.3,8.699 3.5,3.699" /><path
         style="fill:#ffffff"
         id="path44"
         inkscape:connector-curvature="0"
         d="m 1660.1,719.5 c 3.7,0.699 7.899,1.199 7.3,2 4,-0.9 4.901,-1.7 -7.3,-2" /><path
         style="fill:#ffffff"
         id="path51"
         inkscape:connector-curvature="0"
         d="m 1667.4,721.5 -2.6,0.5 2.399,-0.2 0.201,-0.3" /><path
         style="fill:#ffffff"
         id="path58"
         inkscape:connector-curvature="0"
         d="m 1781.4,892.4 c 0.4,11.101 -3.2,16.4 -6.5,25.9 l -5.9,2.899 c -4.8,9.4 0.5,6 -3,13.4 -7.6,6.7 -22.899,21 -27.899,22.3 -3.601,-0.1 2.399,-4.2 3.2,-5.899 -10.101,6.899 -8.101,10.399 -23.601,14.6 l -0.5,-1 c -38.2,17.9 -91.2,-17.6 -90.5,-66.1 -0.399,3.1 -1.2,2.3 -2,3.6 -2,-24.9 11.5,-50 34.3,-60.2 22.301,-11 48.4,-6.5 64.4,8.4 -8.8,-11.5 -26.2,-23.601 -46.9,-22.5 -20.3,0.3 -39.199,13.2 -45.5,27.1 -10.399,6.5 -11.6,25.101 -16.1,28.601 -6.1,44.6 11.4,63.899 41.1,86.6 4.7,3.1 1.301,3.6 2,6 -9.899,-4.6 -18.899,-11.6 -26.3,-20.1 3.9,5.699 8.2,11.3 13.7,15.699 -9.3,-3.1 -21.7,-22.5 -25.3,-23.3 16,28.601 65,50.2 90.6,39.5 -11.899,0.4 -26.899,0.2 -40.3,-4.7 -5.6,-2.899 -13.2,-8.8 -11.8,-9.899 35,13 71.1,9.899 101.399,-14.3 7.7,-6 16.101,-16.2 18.5,-16.301 -3.699,5.5 0.601,2.601 -2.199,7.5 7.699,-12.399 -3.301,-5 7.899,-21.3 l 4.2,5.7 c -1.5,-10.3 12.8,-22.7 11.3,-38.9 3.3,-5 3.7,5.301 0.2,16.7 4.8,-12.7 1.3,-14.7 2.5,-25.1 1.3,3.5 3.1,7.2 4,10.899 -3.1,-12.199 3.2,-20.6 4.8,-27.699 -1.6,-0.7 -4.899,5.399 -5.6,-9 0.1,-6.301 1.8,-3.301 2.399,-4.801 -1.199,-0.699 -4.5,-5.5 -6.399,-14.699 1.399,-2.2 3.8,5.6 5.8,5.899 -1.2,-7.3 -3.4,-12.899 -3.5,-18.6 -5.7,-11.9 -2,1.6 -6.6,-5.101 -6,-18.8 5,-4.399 5.8,-12.899 9.2,13.3 14.399,33.8 16.8,42.3 -1.8,-10.4 -4.8,-20.4 -8.4,-30.1 2.801,1.199 -4.5,-21.301 3.601,-6.4 -8.601,-31.8 -37,-61.5 -63.101,-75.4 3.2,2.9 7.2,14.2 5.801,14.801 -13,-7.7 -10.7,-15.9 -12.601,-19.2 -10.6,-4.3 -11.3,0.3 -18.3,0 -19.9,-10.601 -23.8,-9.4 -42.1,-16 l 0.8,3.899 c -13.2,-4.399 -15.4,1.7 -29.7,0 -0.899,-0.699 4.601,-2.399 9,-3.1 -12.8,1.7 -12.199,-2.5 -24.699,0.5 3.1,-2.2 6.3,-3.6 9.6,-5.4 -10.4,0.601 -24.9,6 -20.4,1.101 -17,7.6 -47.1,18.2 -64.1,34 l -0.5,-3.5 c -7.8,9.3 -33.8,27.8 -35.9,39.8 l -2.1,0.5 c -4,6.8 -6.6,14.6 -9.8,21.6 -5.301,9 -7.7,3.5 -7,4.9 -10.4,21 -15.5,38.7 -20,53.1 3.199,4.7 0.1,28.5 1.3,47.5 -5.2,94 66.1,185.2 144,206.301 11.4,4.1 28.4,3.899 42.8,4.3 -17,-4.9 -19.3,-2.601 -35.899,-8.4 -12,-5.6 -14.601,-12.1 -23.101,-19.399 l 3.4,5.899 c -16.601,-5.899 -9.7,-7.3 -23.2,-11.6 l 3.6,-4.7 c -5.399,-0.4 -14.3,-9.1 -16.699,-13.9 l -5.9,0.2 c -7.1,-8.7 -10.9,-15 -10.6,-19.899 l -1.9,3.399 c -2.2,-3.7 -26.1,-32.7 -13.7,-26 -2.3,-2.1 -5.399,-3.399 -8.7,-9.5 l 2.5,-2.899 c -6,-7.7 -11,-17.5 -10.6,-20.801 3.2,4.301 5.4,5.101 7.6,5.801 -15.1,-37.4 -15.899,-2.101 -27.399,-38 l 2.399,-0.2 c -1.899,-2.8 -3,-5.8 -4.5,-8.8 l 1,-10.5 c -10.899,-12.5 -3,-53.301 -1.5,-75.601 1.101,-9.1 9.101,-18.8 15.101,-33.899 l -3.7,-0.601 c 7.1,-12.3 40.3,-49.399 55.8,-47.5 7.5,-9.399 -1.5,0 -2.899,-2.399 16.399,-16.9 21.6,-12 32.6,-15 11.9,-7.101 -10.2,2.8 -4.6,-2.7 20.6,-5.3 14.6,-12 41.5,-14.601 2.8,1.601 -6.601,2.5 -9,4.601 17.199,-8.4 54.399,-6.5 78.6,4.7 28,13.1 59.6,51.8 60.8,88.1 l 1.4,0.4 c -0.7,14.5 2.2,31.199 -2.9,46.6 l 3.797,-7.202" /><path
         style="fill:#ffffff"
         id="path65"
         inkscape:connector-curvature="0"
         d="m 1611.301,941.5 -1,4.8 c 4.5,6.1 8.1,12.7 13.8,17.5 -4.101,-8.101 -7.101,-11.4 -12.8,-22.3" /><path
         style="fill:#ffffff"
         id="path72"
         inkscape:connector-curvature="0"
         d="m 1622,941.1 c -2.399,-2.6 -3.8,-5.8 -5.399,-9 1.5,5.5 4.6,10.3 7.5,15.1 L 1622,941.1" /><path
         style="fill:#ffffff"
         id="path79"
         inkscape:connector-curvature="0"
         d="m 1810.2,900.199 -1,2.5 c -1.8,13.101 -5.8,26 -11.899,38 6.699,-12.599 11.099,-26.5 12.899,-40.5" /><path
         style="fill:#ffffff"
         id="path86"
         inkscape:connector-curvature="0"
         d="m 1661.5,716.199 c 4.601,-1.699 11.4,-0.899 16.301,-2 -6.4,0.5 -12.801,0.9 -19.101,1.7 l 2.8,0.3" /><path
         style="fill:#ffffff"
         id="path93"
         inkscape:connector-curvature="0"
         d="m 1498.9,802.5 c 1.1,9.899 -7.4,13.699 1.9,7.199 5.001,-11.299 -1.999,-3.099 -1.9,-7.199" /><path
         style="fill:#ffffff"
         id="path100"
         inkscape:connector-curvature="0"
         d="m 1488,848.1 c 2.101,-6.6 2.5,-10.5 3.301,-14.3 -5.901,7.5 -2.701,9.2 -3.301,14.3" /></g></g><g
     style="opacity:0.9"
     id="g161"
     transform="matrix(2,0,0,2,-2603.28,-1779.8562)"><path
       style="opacity:0.8;fill:#ffffff"
       d="m 1373.868,1877.12 c -0.08,0.08 -0.08,13.44 -0.24,16.961 -0.16,2.8 -0.4,8.879 -6.4,8.879 -6.159,0 -7.68,-7.039 -8.159,-10.159 -0.561,-3.44 -0.561,-6.24 -0.561,-7.44 0,-4 0.24,-15.12 9.601,-15.12 2.8,0 4.399,0.8 5.68,1.521 z m -24.08,9.76 c 0,23.439 12.479,23.439 14.319,23.439 5.12,0 8.48,-2.8 9.92,-7.76 l 0.16,7.36 c 1.601,-0.08 3.2,-0.24 5.76,-0.24 0.881,0 1.681,0 2.32,0.08 0.64,0 1.36,0.08 2.08,0.16 -1.36,-2.641 -2.32,-8.641 -2.32,-21.601 0,-12.64 0,-34 1.04,-40.479 -2.96,1.439 -5.6,2.32 -11.199,2.8 2.239,2.399 2.239,3.68 2.239,14.64 -1.6,-0.479 -3.6,-1.04 -6.96,-1.04 -14.959,0.081 -17.359,13.041 -17.359,22.641"
       enable-background="new    "
       inkscape:connector-curvature="0"
       id="path163" /><path
       style="opacity:0.8;fill:#ffffff"
       d="m 1394.828,1882.64 c 0.08,-6.88 1.52,-13.04 7.359,-13.04 6.48,0 6.96,7.12 6.801,13.04 z m 22.48,0.88 c 0,-9.76 -1.92,-19.28 -14.239,-19.28 -16.96,0 -16.96,18.8 -16.96,22.8 0,16.881 7.52,23.521 20.239,23.521 5.681,0 8.4,-0.8 9.92,-1.28 -0.08,-2.96 0.32,-4.88 0.801,-7.52 -1.761,1.12 -4,2.479 -8.96,2.479 -12.96,0 -13.12,-11.84 -13.12,-15.92 h 22.08 l 0.239,-4.8"
       enable-background="new    "
       inkscape:connector-curvature="0"
       id="path165" /><path
       style="opacity:0.8;fill:#ffffff"
       d="m 1444.268,1887.04 c 0,7.761 -1.439,18.16 -11.04,18.16 -1.359,0 -2.96,-0.24 -4.08,-0.479 -0.159,-2.96 -0.159,-8.16 -0.159,-14.16 0,-7.12 0.72,-10.88 1.359,-12.72 1.76,-5.92 5.681,-6 6.4,-6 6.32,-10e-4 7.52,8.719 7.52,15.199 z m -23.84,9.121 c 0,6.159 0,9.68 -0.96,12.319 3.44,1.36 7.681,2.08 12.72,2.08 3.2,0 12.641,0 17.681,-10.399 2.399,-4.801 3.28,-11.28 3.28,-16.24 0,-2.96 -0.32,-9.521 -2.721,-13.681 -2.319,-3.92 -6.08,-5.92 -10.08,-5.92 -8,0 -10.319,6.641 -11.52,10.08 0,-4.24 0.08,-19.04 0.72,-26.56 -5.359,2.479 -8.72,2.88 -12.319,3.279 3.279,1.36 3.279,6.801 3.279,24.641 v 20.4"
       enable-background="new    "
       inkscape:connector-curvature="0"
       id="path167" /><path
       style="opacity:0.8;fill:#ffffff"
       d="m 1469.068,1910 c -1.681,-0.24 -2.801,-0.4 -5.28,-0.4 -2.641,0 -4.48,0.16 -6.4,0.4 0.8,-1.601 1.2,-2.32 1.44,-7.761 0.319,-7.359 0.399,-27.2 -0.16,-31.359 -0.4,-3.12 -1.2,-3.681 -2.32,-4.48 6.801,-0.64 8.721,-1.2 11.92,-2.64 -0.64,3.68 -0.72,5.52 -0.72,11.04 -0.24,28.72 -0.32,31.76 1.52,35.2"
       enable-background="new    "
       inkscape:connector-curvature="0"
       id="path169" /><path
       style="opacity:0.8;fill:#ffffff"
       d="m 1495.708,1886.48 c -0.16,5.2 -0.24,8.88 -1.68,11.76 -1.761,3.761 -4.641,4.8 -6.801,4.8 -4.96,0 -6.08,-4.159 -6.08,-8.239 0,-7.841 6.96,-8.4 10.16,-8.4 z m -22.88,10.24 c 0,5.2 1.6,10.479 6.24,12.72 2.08,0.88 4.159,0.88 4.8,0.88 7.68,0 10.24,-5.68 11.84,-9.12 -0.08,3.681 0,5.92 0.24,8.801 1.52,-0.08 2.96,-0.24 5.52,-0.24 1.44,0 2.72,0.16 4.16,0.24 -0.88,-1.44 -1.44,-2.24 -1.68,-5.521 -0.16,-3.12 -0.16,-6.32 -0.16,-10.72 l 0.08,-16.96 c 0,-6.32 -1.681,-12.561 -14.16,-12.561 -8.24,0 -13.04,2.48 -15.44,3.761 0.96,1.84 1.841,3.439 2.561,6.959 3.28,-2.8 7.52,-4.319 11.76,-4.319 6.88,0 6.88,4.56 6.88,11.04 -1.6,-0.08 -2.88,-0.24 -5.12,-0.24 -10.561,0.08 -17.521,4.16 -17.521,15.28"
       enable-background="new    "
       inkscape:connector-curvature="0"
       id="path171" /><path
       style="opacity:0.8;fill:#ffffff"
       d="m 1543.548,1901.76 c 0.08,2.8 0.08,5.84 1.28,8.24 -1.84,-0.16 -2.88,-0.4 -6.32,-0.4 -2,0 -3.119,0.16 -4.64,0.4 0.32,-1.12 0.48,-1.521 0.64,-2.881 0.24,-1.92 0.4,-8.319 0.4,-10.56 v -8.96 c 0,-3.92 0,-9.52 -0.24,-11.52 -0.16,-1.44 -0.56,-5.2 -5.439,-5.2 -4.721,0 -6.32,3.52 -6.881,6.319 -0.64,2.881 -0.64,6.08 -0.64,18.4 0.08,10.641 0.08,11.6 0.88,14.561 -1.439,-0.16 -3.12,-0.32 -5.68,-0.32 -2,0 -3.36,0.08 -4.96,0.32 0.56,-1.36 0.88,-2 1.12,-6.641 0.159,-4.56 0.479,-27.04 -0.24,-32.32 -0.4,-3.279 -1.28,-4 -2.16,-4.8 6.72,-0.319 8.88,-1.439 10.96,-2.479 v 8.8 c 0.96,-2.56 3.04,-8.32 11.36,-8.32 10.399,0 10.479,7.601 10.56,12.561 v 24.8"
       enable-background="new    "
       inkscape:connector-curvature="0"
       id="path173" /><path
       style="opacity:0.8;fill:#ffffff"
       d="m 1469.788,1852.081 -6.88,6.88 -6.881,-6.88 6.881,-6.881 6.88,6.881"
       enable-background="new    "
       inkscape:connector-curvature="0"
       id="path175" /></g><line
     id="line150-0"
     stroke-miterlimit="10"
     x1="1"
     y1="2100.5081"
     x2="997.64001"
     y2="2100.5081"
     style="fill:none;stroke:url(#line150-0_1_);stroke-width:3;stroke-miterlimit:10" /><line
     id="line143-1"
     stroke-miterlimit="10"
     x1="561.79999"
     y1="1697.6299"
     x2="561.79999"
     y2="2581.1479"
     style="fill:none;stroke:url(#line143-1_1_);stroke-width:3;stroke-miterlimit:10" /></svg>